# xmcd
#
# Track frame offsets: 
#        150
#        25913
#        45618
#        63409
#        85247
#        102395
#        124917
#        150032
#        168084
#        188785
#        210080
#        224044
#        245751
#
# Disc length: 3518 seconds
#
# Revision: 0
# Processed by: cddbd v1.5.2PL0 Copyright (c) Steve Scherf et al.
# Submitted via: ExactAudioCopy v1.0b6
#
DISCID=aa0dbc0d
DTITLE=Blue Water Highway Band - Things We Carry
DYEAR=2015
DGENRE=Country
TTITLE0=Hard Time Train
TTITLE1=City Love, City Lose
TTITLE2=Oh Seraphim!
TTITLE3=Greytown
TTITLE4=Medicine Man
TTITLE5=How I Broke Your Heart
TTITLE6=My Blue San Antone
TTITLE7=John Henry
TTITLE8=The Running
TTITLE9=Voice In Ramah
TTITLE10=Q To Cortelyou
TTITLE11=Things We Carry
TTITLE12=Highway To Glory
EXTD=
EXTT0=
EXTT1=
EXTT2=
EXTT3=
EXTT4=
EXTT5=
EXTT6=
EXTT7=
EXTT8=
EXTT9=
EXTT10=
EXTT11=
EXTT12=
PLAYORDER=
